<svg width="47" height="47" xmlns="http://www.w3.org/2000/svg"><g fill="none" fill-rule="evenodd"><path d="M5.917 10.189l.5.5.826 2.277 7.662 9.73.215 12.28 1.249 1.75L26.926 26.17 8.43 7.675 5.917 10.19z" fill="#DAE0E4"/><path d="M24.412 28.683l-8.546 8.547 1 1 8.546-8.547-1-1z" fill="#F30C45"/><path d="M24.406 30.689l-7.54 7.54 2.005-.005 6.535-6.536-1-1z" fill="#4E5255"/><path d="M5.917 10.189l.744 2.755 7.24 10.255.217 11.78 1.748 2.25.503-.502-1.249-1.751-.215-12.28-7.662-9.73-.826-2.277-.5-.5z" fill="#AAB1B4"/><path d="M16.369 36.727l-.503.503 1 1 .502-.503-1-1z" fill="#C00733"/><path d="M16.866 38.23l2.005-.006.502-.503-2.005.006-.502.502" fill="#3E4448"/><path d="M25.406 31.688l-6.535 6.536 1.002-.003 6.033-6.033-.5-.5z" fill="#F1F5F6"/><path d="M22.661 27.435l-.01 3.51 2.25 2.249 1.005-1.006-3.245-4.753z" fill-opacity=".75" fill="#243038"/><path d="M18.87 38.224l1.003-.003.503-.503-1.003.003-.502.503" fill="#AAB1B4"/><path d="M10.945 5.162C2.919-1.145.993.135.935.176L.932.177S-.49 2.036 5.917 10.19l5.028-5.027z" fill="#DAE0E4"/><path d="M10.19 5.916C7.887 4.093 5.514 2.417 2.935 1.174l.66-.659c.112.078 1.931.455 7.35 4.647l-.503.502" fill="#F8FCFC"/><path d="M6.671 9.435C4.848 7.13 3.173 4.758 1.93 2.18l-.66.659c.08.112.456 1.931 4.647 7.35l.503-.503" fill="#AAB1B4"/><path d="M1.27 2.839L3.595.515C1.6-.267.967.153.934.176v.001s-.467.61.337 2.662z" fill="#C00733"/><path d="M.933.177l1.5 1.5L3.594.515C1.6-.267.967.153.934.176v.001z" fill="#F30C45"/><path d="M10.945 5.162l.5.5 2.277.825 9.729 7.662 12.28.216 1.752 1.248L26.926 26.17 8.43 7.675l2.514-2.513z" fill="#DAE0E4"/><path d="M5.917 10.189l5.028-5.027 18.494 18.494-5.027 5.027L5.917 10.19z" fill="#F1F5F6"/><path d="M24.923 25.173l1.006-1.005 6.998 6.997-.003 1.003-1.003.003-6.998-6.998z" fill="#DAE0E4"/><path d="M29.44 23.656l8.545-8.546 1 1-8.546 8.546-1-1z" fill="#F30C45"/><path d="M25.679 23.918l1.508-1.509a2.127 2.127 0 0 1 3.008-.008l3.249 3.249-3.017 3.016-4.748-4.748z" fill="#4E5255"/><path d="M33.444 25.65l-3.25-3.25a2.126 2.126 0 0 0-3.007.01l-1.257 1.256.5.5 1.342-1.342c.244-.244.575-.382.919-.383a1.29 1.29 0 0 1 .916.378l3.334 3.334.503-.503z" fill="#6A7176"/><path d="M23.672 24.425l-.007-.993.492-.492 1.023-.024 2.5 2.5-1.508 1.508-2.5-2.5z" fill="#92989C"/><path d="M31.444 23.65l7.541-7.54-.006 2.005-6.535 6.535-1-1z" fill="#4E5255"/><path d="M10.945 5.162l2.754.744 10.256 7.239 11.78.217 2.25 1.748-.502.503-1.751-1.248-12.281-.216-9.729-7.662-2.278-.826-.5-.5z" fill="#F1F5F6"/><path d="M31.182 27.912l1.508-1.508.75.75-1.509 1.508-.75-.75z" fill="#3E4448"/><path d="M31.182 27.912l1.508-1.508.5.5-1.509 1.508-.5-.5z" fill="#243038"/><path d="M33.43 30.161l1.509-1.508.5.5-1.508 1.508-.5-.5z" fill="#3E4448"/><path d="M34.436 29.156l.503-.503.5.5-.503.503-.5-.5z" fill="#4E5255"/><path d="M33.43 30.161l.504-.502.5.5-.503.502-.5-.5z" fill="#243038"/><path d="M29.41 34.183l1.507-1.508.5.5-1.508 1.508-.5-.5z" fill="#3E4448"/><path d="M30.415 33.178l.502-.503.5.5-.503.503-.5-.5z" fill="#4E5255"/><path d="M29.41 34.183l.502-.503.5.5-.503.503-.5-.5z" fill="#243038"/><path d="M31.429 29.165l2.513-2.514.997 2.002-1.508 1.508-2.002-.996z" fill="#F30C45"/><path d="M10.19 5.916l.755-.754L27.69 21.907l-.754.754L10.19 5.916z" fill="#F8FCFC"/><path d="M5.917 10.189l.754-.754L23.417 26.18l-.754.754L5.917 10.189z" fill="#C7CDD0"/><path d="M5.683 4.425l1.505-.506 1.252.748-1.757.757-1-1z" fill="#3E4448"/><path d="M6.683 5.424l1.757-.757-2.757-.242" fill="#4E5255"/><path d="M5.18 4.927l-.505 1.506.748 1.25.757-1.756-1-1z" fill="#3E4448"/><path d="M6.18 5.927l-.757 1.757-.243-2.757" fill="#4E5255"/><path d="M33.942 26.651l-.503.503.997 2.002.503-.503-.997-2.002z" fill="#FD0D48"/><path d="M31.429 29.165l.502-.503 2.003.997-.503.502-2.002-.996" fill="#C00733"/><path d="M24.673 24.923l-1.508 1.508a2.127 2.127 0 0 0-.008 3.008l3.249 3.249 3.016-3.016-4.749-4.749z" fill="#4E5255"/><path d="M26.406 32.688l-3.25-3.25a2.126 2.126 0 0 1 .009-3.007l1.257-1.257.5.5-1.342 1.342a1.305 1.305 0 0 0-.383.919 1.29 1.29 0 0 0 .378.916l3.333 3.334-.502.503zm2.262-2.262l-1.508 1.508.75.75 1.508-1.509-.75-.75z" fill="#3E4448"/><path d="M28.668 30.426l-1.508 1.508.5.5 1.508-1.508-.5-.5z" fill="#243038"/><path d="M29.92 30.673l-2.513 2.513 2.002.997 1.508-1.508-.997-2.002z" fill="#F30C45"/><path d="M29.92 30.673l-.502.502.997 2.003.502-.503-.997-2.002z" fill="#FD0D48"/><path d="M27.407 33.186l.503-.502 2.002.996-.503.503-2.002-.997" fill="#C00733"/><path d="M24.178 22.92l1.002-.004 2.5 2.5-.503.502-3-2.999z" fill="#AAB1B4"/><path d="M23.672 24.425l.003-1.003 3 3-.503.502-2.5-2.5z" fill="#6A7176"/><path d="M27.428 25.667l5.499 5.498-.003 1.003-5.998-5.998.502-.503z" fill="#F8FCFC"/><path d="M37.483 15.613l.502-.503 1 1-.503.502-1-1z" fill="#FD0D48"/><path d="M38.985 16.11l-.006 2.005-.502.503.005-2.006.503-.502M5.917 10.189l5.028-5.027.5.5-5.028 5.027-.5-.5z" fill="#6A7176"/><path d="M10.19 5.916l.755-.754.5.5-.755.753-.5-.5z" fill="#AAB1B4"/><path d="M5.917 10.189l.754-.754.5.5-.754.754-.5-.5zm9.997 9.997l.755-.754.5.5-.755.754-.5-.5z" fill="#4E5255"/><path d="M8.667 12.938l5.027-5.027.5.5-5.028 5.027-.5-.5z" fill="#6A7176"/><path fill="#F30C45" d="M11.923 13.68l2.513-2.513.25.25-2.513 2.513-.25-.25zm1.749 1.75l2.514-2.514.25.25-2.514 2.514-.25-.25zm1.75 1.75l2.513-2.514.25.25-2.513 2.513-.25-.25z"/><path d="M12.94 8.665l.754-.754.5.5-.755.754-.5-.5z" fill="#AAB1B4"/><path d="M8.667 12.938l.754-.754.5.5-.755.754-.5-.5zm1.771-5.77l.25-.251.25.25-.25.251-.25-.25zM7.673 9.933l.25-.251.25.25-.25.251-.25-.25zm4.264-1.265l.251-.252.25.25-.251.252-.25-.25zm-2.765 2.765l.251-.252.25.25-.25.252-.25-.25z" fill="#4E5255"/><path d="M16.669 19.432l4.273-4.273.5.5-4.274 4.273-.5-.5z" fill="#6A7176"/><path d="M20.188 15.913l.754-.754.5.5-.755.754-.5-.5z" fill="#AAB1B4"/><path d="M18.664 22.935l5.027-5.027.5.5-5.027 5.027-.5-.5z" fill="#6A7176"/><path d="M22.937 18.662l.754-.754.5.5-.754.754-.5-.5z" fill="#AAB1B4"/><path d="M18.664 22.935l.754-.754.5.5-.754.754-.5-.5zm1.771-5.77l.251-.251.25.25-.251.251-.25-.25zM17.67 19.93l.251-.251.25.25-.251.251-.25-.25zm4.264-1.265l.252-.252.25.25-.252.252-.25-.25zM19.17 21.43l.25-.252.25.25-.25.252-.25-.25z" fill="#4E5255"/><path d="M32.444 24.65l6.535-6.535-.003 1.002-6.032 6.033-.5-.5z" fill="#F1F5F6"/><path d="M38.98 18.115l-.004 1.002-.502.503.003-1.002.502-.503" fill="#F8FCFC"/><path d="M23.672 24.425l.244 2.255 2.25 2.249-.246-1.754.252-.251-2.5-2.5z" fill-opacity=".75" fill="#243038"/><path d="M26.423 26.673l-.503.502 3 3 .502-.503-3-3z" fill-opacity=".702" fill="#243038"/><path d="M10.438 7.168l-.002.501.25.25.251-.251.002-.501-.252.251-.25-.25m1.5 1.5l-.001.501.25.25.25-.251.002-.502-.251.252-.25-.25m-2.765 2.765l-.001.5.25.25.251-.25.001-.502-.25.252-.25-.25m-1.5-1.5l-.002.501.25.25.251-.251.002-.501-.252.251-.25-.25m12.763 7.232l-.002.502.25.25.251-.252.002-.501-.251.251-.25-.25m1.499 1.5l-.001.501.25.25.251-.251.001-.502-.25.252-.25-.25M19.17 21.43l-.002.501.25.25.251-.251.002-.502-.252.252-.25-.25m-1.499-1.5l-.002.501.25.25.252-.251.001-.501-.251.251-.25-.25" fill="#DAE0E4"/><path d="M47.026 41.746s-6.19-10.28-7.105-11.196a2.884 2.884 0 0 0-4.079.012 2.884 2.884 0 0 0-.011 4.079c.915.915 11.195 7.105 11.195 7.105z" fill-opacity=".25" fill="#F9A600"/><path d="M44.683 39.403s-3.89-6.906-5.24-8.256a2.127 2.127 0 0 0-3.007.008 2.127 2.127 0 0 0-.009 3.008c1.35 1.35 8.256 5.24 8.256 5.24z" fill="#F9A600"/><path d="M41.434 36.154s-2.004-3.558-2.7-4.253a1.096 1.096 0 0 0-1.548.004 1.096 1.096 0 0 0-.005 1.55c.695.695 4.253 2.699 4.253 2.699z" fill="#FCC300"/><path d="M37.433 33.158a.709.709 0 0 1 .002-1.003.709.709 0 0 1 1.003-.003c-.2.035-.452.152-.653.353-.2.2-.318.453-.352.653z" fill="#FBE900"/><path d="M42.502 46.27s-6.19-10.28-7.106-11.195a2.884 2.884 0 0 0-4.078.011 2.884 2.884 0 0 0-.012 4.079c.915.915 11.196 7.106 11.196 7.106z" fill-opacity=".25" fill="#F9A600"/><path d="M40.159 43.928s-3.89-6.907-5.24-8.257a2.127 2.127 0 0 0-3.008.009 2.127 2.127 0 0 0-.008 3.008c1.35 1.35 8.256 5.24 8.256 5.24z" fill="#F9A600"/><path d="M36.91 40.678s-2.004-3.557-2.7-4.253a1.096 1.096 0 0 0-1.549.005 1.096 1.096 0 0 0-.004 1.55c.695.694 4.253 2.698 4.253 2.698z" fill="#FCC300"/><path d="M32.908 37.682a.709.709 0 0 1 .003-1.002.709.709 0 0 1 1.003-.003 1.27 1.27 0 0 0-.653.353c-.2.2-.318.452-.353.652z" fill="#FBE900"/></g></svg>